<svg width="15" height="16" viewBox="0 0 15 16" fill="none" xmlns="http://www.w3.org/2000/svg">
<path d="M10.3704 15.4889C10.3704 15.6068 10.3246 15.7199 10.2432 15.8032C10.1618 15.8866 10.0514 15.9334 9.93627 15.9334H5.30585C5.19072 15.9334 5.0803 15.8866 4.99889 15.8032C4.91748 15.7199 4.87175 15.6068 4.87175 15.4889C4.87175 15.3711 4.91748 15.258 4.99889 15.1747C5.0803 15.0913 5.19072 15.0445 5.30585 15.0445H9.93627C10.0514 15.0445 10.1618 15.0913 10.2432 15.1747C10.3246 15.258 10.3704 15.3711 10.3704 15.4889ZM14.2852 13.0445C14.1975 13.2027 14.0701 13.3342 13.9162 13.4253C13.7624 13.5165 13.5876 13.564 13.4098 13.563H1.83304C1.65499 13.5626 1.48019 13.5142 1.32625 13.4226C1.1723 13.331 1.04466 13.1995 0.956185 13.0413C0.867707 12.8831 0.821519 12.7039 0.822275 12.5216C0.823031 12.3393 0.870704 12.1604 0.960491 12.003C1.36927 11.2815 1.97774 9.24745 1.97774 6.60004C1.97774 5.06768 2.5723 3.59808 3.63063 2.51454C4.68896 1.43099 6.12436 0.822266 7.62106 0.822266C9.11776 0.822266 10.5532 1.43099 11.6115 2.51454C12.6698 3.59808 13.2644 5.06768 13.2644 6.60004C13.2644 9.24671 13.8736 11.2815 14.2831 12.003C14.3738 12.1607 14.4219 12.3404 14.4223 12.5234C14.4226 12.7065 14.3753 12.8864 14.2852 13.0445ZM13.5321 12.4519C12.9844 11.4889 12.3962 9.24301 12.3962 6.60004C12.3962 5.30343 11.8931 4.05992 10.9976 3.14308C10.1021 2.22623 8.8875 1.71115 7.62106 1.71115C6.35462 1.71115 5.14005 2.22623 4.24454 3.14308C3.34903 4.05992 2.84594 5.30343 2.84594 6.60004C2.84594 9.24375 2.25701 11.4889 1.70932 12.4519C1.69662 12.4744 1.68993 12.5 1.68993 12.526C1.68993 12.552 1.69662 12.5775 1.70932 12.6C1.72123 12.6227 1.739 12.6416 1.76069 12.6547C1.78238 12.6678 1.80715 12.6745 1.83231 12.6741H13.4091C13.4342 12.6745 13.459 12.6678 13.4807 12.6547C13.5024 12.6416 13.5202 12.6227 13.5321 12.6C13.5448 12.5775 13.5515 12.552 13.5515 12.526C13.5515 12.5 13.5448 12.4744 13.5321 12.4519Z" fill="white"/>
</svg>
