<svg width="15" height="15" viewBox="0 0 15 15" fill="none" xmlns="http://www.w3.org/2000/svg">
<path d="M13.3276 2.09458L9.92466 2.09459V1.24737C9.92466 1.0125 9.73447 0.822266 9.49966 0.822266C9.26485 0.822266 9.07466 1.0125 9.07466 1.24737V2.09438H5.67466V1.24737C5.67466 1.0125 5.48447 0.822266 5.24966 0.822266C5.01485 0.822266 4.82466 1.0125 4.82466 1.24737V2.09438H1.42764C0.958224 2.09438 0.577637 2.47505 0.577637 2.94458V13.5721C0.577637 14.0416 0.958224 14.4223 1.42764 14.4223H13.3276C13.797 14.4223 14.1776 14.0416 14.1776 13.5721V2.94458C14.1776 2.47525 13.797 2.09458 13.3276 2.09458ZM13.3276 13.5721H1.42764V2.94458H4.82466V3.37286C4.82466 3.60772 5.01485 3.79796 5.24966 3.79796C5.48447 3.79796 5.67466 3.60772 5.67466 3.37286V2.94479H9.07466V3.37308C9.07466 3.60794 9.26485 3.79818 9.49966 3.79818C9.73447 3.79818 9.92466 3.60794 9.92466 3.37308V2.94479H13.3276V13.5721ZM10.3526 7.62087H11.2026C11.4372 7.62087 11.6276 7.43043 11.6276 7.19577V6.34557C11.6276 6.11092 11.4372 5.92047 11.2026 5.92047H10.3526C10.118 5.92047 9.92764 6.11092 9.92764 6.34557V7.19577C9.92764 7.43043 10.118 7.62087 10.3526 7.62087ZM10.3526 11.0215H11.2026C11.4372 11.0215 11.6276 10.8312 11.6276 10.5964V9.74616C11.6276 9.5115 11.4372 9.32106 11.2026 9.32106H10.3526C10.118 9.32106 9.92764 9.5115 9.92764 9.74616V10.5964C9.92764 10.8314 10.118 11.0215 10.3526 11.0215ZM7.80264 9.32106H6.95264C6.71804 9.32106 6.52764 9.5115 6.52764 9.74616V10.5964C6.52764 10.8312 6.71804 11.0215 6.95264 11.0215H7.80264C8.03724 11.0215 8.22764 10.8312 8.22764 10.5964V9.74616C8.22764 9.51171 8.03724 9.32106 7.80264 9.32106ZM7.80264 5.92047H6.95264C6.71804 5.92047 6.52764 6.11092 6.52764 6.34557V7.19577C6.52764 7.43043 6.71804 7.62087 6.95264 7.62087H7.80264C8.03724 7.62087 8.22764 7.43043 8.22764 7.19577V6.34557C8.22764 6.1107 8.03724 5.92047 7.80264 5.92047ZM4.40264 5.92047H3.55264C3.31804 5.92047 3.12764 6.11092 3.12764 6.34557V7.19577C3.12764 7.43043 3.31804 7.62087 3.55264 7.62087H4.40264C4.63724 7.62087 4.82764 7.43043 4.82764 7.19577V6.34557C4.82764 6.1107 4.63724 5.92047 4.40264 5.92047ZM4.40264 9.32106H3.55264C3.31804 9.32106 3.12764 9.5115 3.12764 9.74616V10.5964C3.12764 10.8312 3.31804 11.0215 3.55264 11.0215H4.40264C4.63724 11.0215 4.82764 10.8312 4.82764 10.5964V9.74616C4.82764 9.51171 4.63724 9.32106 4.40264 9.32106Z" fill="#F8F8FB"/>
</svg>
