<svg width="16" height="5" viewBox="0 0 16 5" fill="none" xmlns="http://www.w3.org/2000/svg">
<path d="M2.57444 4.31134C3.44398 4.31134 4.14888 3.49648 4.14888 2.4913C4.14888 1.48612 3.44398 0.671265 2.57444 0.671265C1.7049 0.671265 1 1.48612 1 2.4913C1 3.49648 1.7049 4.31134 2.57444 4.31134Z" stroke="#A1A3AB"/>
<path d="M8.08518 4.31134C8.95472 4.31134 9.65963 3.49648 9.65963 2.4913C9.65963 1.48612 8.95472 0.671265 8.08518 0.671265C7.21564 0.671265 6.51074 1.48612 6.51074 2.4913C6.51074 3.49648 7.21564 4.31134 8.08518 4.31134Z" stroke="#A1A3AB"/>
<path d="M13.5954 4.31134C14.465 4.31134 15.1699 3.49648 15.1699 2.4913C15.1699 1.48612 14.465 0.671265 13.5954 0.671265C12.7259 0.671265 12.021 1.48612 12.021 2.4913C12.021 3.49648 12.7259 4.31134 13.5954 4.31134Z" stroke="#A1A3AB"/>
</svg>
