<svg width="17" height="16" viewBox="0 0 17 16" fill="none" xmlns="http://www.w3.org/2000/svg">
<path fill-rule="evenodd" clip-rule="evenodd" d="M6.65349 0.712191C5.57196 0.790068 4.52474 1.12545 3.59919 1.69037C2.67365 2.25528 1.89661 3.03334 1.33292 3.95963C0.769235 4.88593 0.435234 5.93359 0.358787 7.01522C0.282339 8.09685 0.465663 9.18107 0.893464 10.1774C1.32126 11.1738 1.98114 12.0534 2.81802 12.7429C3.65491 13.4324 4.64455 13.9117 5.70437 14.141C6.76419 14.3702 7.86346 14.3426 8.91047 14.0606C9.95748 13.7786 10.9219 13.2503 11.7232 12.5197L14.8468 15.2242C15.0078 15.3588 15.2151 15.4247 15.4242 15.4078C15.6333 15.391 15.8274 15.2926 15.9647 15.1341C16.102 14.9755 16.1715 14.7693 16.1583 14.56C16.1451 14.3506 16.0501 14.1548 15.894 14.0148L12.7703 11.3103C13.4867 10.2535 13.8912 9.01631 13.9373 7.74037C13.9834 6.46443 13.6694 5.20128 13.0312 4.09547C12.393 2.98967 11.4563 2.08588 10.3284 1.48755C9.20052 0.88922 7.92696 0.620516 6.65349 0.712191ZM1.95468 7.8677C1.85575 6.49212 2.30732 5.13359 3.21004 4.09096C4.11276 3.04833 5.39269 2.407 6.76826 2.30807C8.14384 2.20914 9.50237 2.6607 10.545 3.56342C11.5876 4.46614 12.229 5.74608 12.3279 7.12165C12.4268 8.49722 11.9753 9.85575 11.0725 10.8984C10.1698 11.941 8.88988 12.5823 7.51431 12.6813C6.13874 12.7802 4.78021 12.3286 3.73757 11.4259C2.69494 10.5232 2.05362 9.24327 1.95468 7.8677Z" fill="white"/>
</svg>
